<svg xmlns="http://www.w3.org/2000/svg" xmlns:xlink="http://www.w3.org/1999/xlink" viewBox="0 0 180.28 58.43"><defs><style>.cls-1{fill:#595757;}.cls-2{fill:#b3d796;}.cls-3{fill:#7dccf3;}.cls-4{fill:url(#新規グラデーションスウォッチ_12);}.cls-5{fill:url(#新規グラデーションスウォッチ_6);}.cls-6{fill:url(#新規グラデーションスウォッチ_8);}.cls-7{fill:url(#新規グラデーションスウォッチ_11);}.cls-8{fill:url(#新規グラデーションスウォッチ_7);}.cls-9{fill:url(#新規グラデーションスウォッチ_9);}.cls-10{fill:url(#新規グラデーションスウォッチ_5);}</style><radialGradient id="新規グラデーションスウォッチ_12" cx="14.09" cy="32.16" r="23.51" gradientUnits="userSpaceOnUse"><stop offset="0" stop-color="#00a63c"/><stop offset="1" stop-color="#a9ce52"/></radialGradient><radialGradient id="新規グラデーションスウォッチ_6" cx="25.15" cy="44.14" r="30.14" gradientUnits="userSpaceOnUse"><stop offset="0" stop-color="#0068b6"/><stop offset="1" stop-color="#7dccf3"/></radialGradient><radialGradient id="新規グラデーションスウォッチ_8" cx="33.48" cy="28.55" r="28.43" gradientUnits="userSpaceOnUse"><stop offset="0" stop-color="#008bd5"/><stop offset="1" stop-color="#7dccf3"/></radialGradient><radialGradient id="新規グラデーションスウォッチ_11" cx="11.72" cy="31.64" r="23.12" gradientUnits="userSpaceOnUse"><stop offset="0" stop-color="#39b382"/><stop offset="1" stop-color="#b3d796"/></radialGradient><radialGradient id="新規グラデーションスウォッチ_7" cx="29.56" cy="44.48" r="19.44" gradientUnits="userSpaceOnUse"><stop offset="0" stop-color="#0068b6"/><stop offset="1" stop-color="#009fe8"/></radialGradient><radialGradient id="新規グラデーションスウォッチ_9" cx="29.16" cy="26.08" r="24.78" gradientUnits="userSpaceOnUse"><stop offset="0" stop-color="#009c84"/><stop offset="1" stop-color="#b3d796"/></radialGradient><radialGradient id="新規グラデーションスウォッチ_5" cx="23.06" cy="0.27" r="11.33" gradientUnits="userSpaceOnUse"><stop offset="0" stop-color="#7dccf3"/><stop offset="1" stop-color="#00469b"/></radialGradient></defs><g id="レイヤー_2" data-name="レイヤー 2"><g id="レイヤー_2-2" data-name="レイヤー 2"><path class="cls-1" d="M118.5,23.09V43.35h-4.35V41.1a6.75,6.75,0,0,1-5.76,2.79,6.27,6.27,0,0,1-5.85-3.3c-.78-1.53-.92-3.06-.92-6.09V23.09h4.49V34.6c0,2.25,0,5.17,3.54,5.17.58,0,4.36-.49,4.36-5.53V23.09Z"/><path class="cls-1" d="M168.19,38.72V30.65c0-2.76-.44-4.22-1.43-5.41-2-2.35-5.18-2.69-7.15-2.69a14,14,0,0,0-6.47,1.56v4.47a12.48,12.48,0,0,1,6.61-2c2.69,0,4,1,4,2.31s-1,1.36-3.2,1.67c-3.71.48-9.6,1.26-9.6,7.15,0,4.15,3.24,6.19,6.78,6.19a8.79,8.79,0,0,0,6.4-2.62,4.7,4.7,0,0,0,.44,2.08H169A9.71,9.71,0,0,1,168.19,38.72Zm-4.36-3.57c0,3.93-3.86,4.9-5.79,4.9s-2.82-1.16-2.82-2.52c0-2.69,2.69-3,4.83-3.3,2.49-.34,2.76-.38,3.78-.86Z"/><rect class="cls-1" x="66.44" y="23.09" width="4.49" height="20.25"/><circle class="cls-2" cx="68.69" cy="17" r="2.47"/><rect class="cls-1" x="175.57" y="23.09" width="4.49" height="20.25"/><circle class="cls-3" cx="177.82" cy="17" r="2.47"/><circle class="cls-1" cx="145.42" cy="41.42" r="2.47"/><polygon class="cls-1" points="96.7 23.09 90.91 23.09 83.43 30.57 83.43 16.18 78.94 16.18 78.94 43.35 83.43 43.35 83.43 35.87 90.91 43.35 96.7 43.35 86.58 33.22 96.7 23.09"/><path class="cls-1" d="M134.66,31.67c-3.88-1.22-4.59-1.46-4.59-2.92,0-1.71,1.84-2.08,3-2.08A11.22,11.22,0,0,1,138.2,28V23.48a15.66,15.66,0,0,0-5.27-.93c-4.39,0-7.36,2.55-7.36,6.16s2.73,5,5.25,5.75c3.57,1.09,4.56,1.43,4.56,3,0,.71-.44,2.34-3.71,2.34a12.33,12.33,0,0,1-6.1-1.86v4.68a19.16,19.16,0,0,0,5.89,1.3c4.29,0,8.41-1.83,8.41-6.4C139.87,33.41,136.64,32.29,134.66,31.67Z"/><path class="cls-4" d="M16.66,27.58c2.7-6.11,11.1-13.51,20-12.14C45.89,16.85,49.43,29,48.79,35.23c-1.53-4.47-5.63-9.64-13.6-10.86A31.16,31.16,0,0,0,16.66,27.58Z"/><path class="cls-5" d="M22.7,44c-6.65.71-17.25-2.87-20.53-11.27C-1.5,23.35,6.76,10.56,16.82,5.39c-6.07,6-9.23,16.35-6.17,24.21A31.23,31.23,0,0,0,22.7,44Z"/><path class="cls-6" d="M33.93,30.58C37.87,36,40.08,47,34.44,54c-5.83,7.27-18.16,4.23-23.2.59,4.63.91,11.16,0,16.21-6.35A31.11,31.11,0,0,0,33.93,30.58Z"/><path class="cls-7" d="M13.53,30.85a14.89,14.89,0,0,1,.89-16.71c5.83-7.27,18.16-4.24,23.19-.59C28.15,12.21,16.32,18.9,13.53,30.85Z"/><path class="cls-8" d="M27.1,45.11c-2.93,5.08-8.72,8.53-14.92,7.58C3,51.28-.57,39.09.07,32.9,3.64,41.77,15.35,48.67,27.1,45.11Z"/><path class="cls-9" d="M32.66,26.23c5.87,0,11.75,3.29,14,9.13C50.07,44,41.28,53.2,35.6,55.74,41.5,48.21,41.62,34.62,32.66,26.23Z"/><circle class="cls-10" cx="20.83" cy="2.64" r="2.64"/></g></g></svg>